<svg xmlns="http://www.w3.org/2000/svg" width="256" height="32" viewBox="0 0 256 32"><title>Alaris Prime</title><path d="M14.188 1.996l7.476 28.014h-4.703L15.193 23H7.006L5.29 30.013H.88L8.988 2h5.208l-.01-.004zM11.12 6.532l-3.189 12.81h6.342L11.12 6.532zm19.235-4.536v24.11h9.913v3.905H25.734V1.996h4.621zm26.08 0l7.476 28.014h-4.703l-1.763-7.015h-8.191l-1.718 7.015h-4.41l8.11-28.014h5.21-.01zm-3.067 4.536l-3.19 12.81h6.341l-3.151-12.81zm23.015-4.536c2.94 0 4.83.504 6.26 1.596a7.953 7.953 0 0 1 2.686 6.385 7.562 7.562 0 0 1-4.284 7.346l5.292 12.684h-5L76.972 18.29h-4.37v11.716h-4.62V1.996h8.401zm-3.78 12.725h3.57c2.941 0 4.58-1.717 4.58-4.787 0-2.898-1.555-4.368-4.58-4.368h-3.57v9.16-.005zM95.868 1.996V30.01h-4.62V1.996h4.62zm19.36 7.646c-1.05-3.149-2.394-4.326-4.913-4.326a3.53 3.53 0 0 0-3.823 3.53 3.286 3.286 0 0 0 1.135 2.48c.84.714 1.64 1.092 4.453 2.186 1.94.592 3.75 1.547 5.333 2.814a7.47 7.47 0 0 1 2.48 5.711c0 5-3.82 8.485-9.364 8.485a9.808 9.808 0 0 1-7.098-2.645 9.414 9.414 0 0 1-2.605-5.166l4.116-1.176c.756 3.486 2.605 5.166 5.67 5.166 2.73 0 4.536-1.596 4.536-4.032 0-2.099-1.176-3.234-4.746-4.58-3.864-1.47-4.58-1.807-5.923-2.983a7.493 7.493 0 0 1-2.521-5.712c0-4.663 3.53-7.896 8.61-7.896a8.532 8.532 0 0 1 6.09 2.185c1.218 1.133 1.806 2.267 2.52 4.58l-3.95 1.379zm19.612-2.186a5.808 5.808 0 0 1-5.796 5.796 5.906 5.906 0 0 1-5.88-5.922 5.827 5.827 0 0 1 5.796-5.88 5.9 5.9 0 0 1 5.88 6.006zm-8.652-.126a2.886 2.886 0 0 0 2.856 2.857 2.805 2.805 0 0 0 2.771-2.815 2.862 2.862 0 0 0-2.814-2.898 2.824 2.824 0 0 0-2.813 2.856zm21.837-5.334c3.612 0 5.503.381 7.06 1.469a8.482 8.482 0 0 1 3.235 7.06c0 3.235-1.26 5.881-3.486 7.225-1.641 1.007-3.194 1.302-6.722 1.302h-2.395v10.963h-4.617V1.994h6.93l-.005.002zm-2.309 13.357h2.31c2.184 0 3.36-.294 4.115-1.05a5.477 5.477 0 0 0 1.302-3.864 5.184 5.184 0 0 0-1.638-4.115c-.797-.63-1.43-.756-3.78-.756h-2.309v9.786zm25.744-13.357c2.94 0 4.83.504 6.259 1.596a7.953 7.953 0 0 1 2.686 6.385 7.562 7.562 0 0 1-4.283 7.346l5.293 12.684h-5l-4.37-11.713h-4.37v11.718h-4.617V1.996H171.461zm-3.78 12.725h3.57c2.94 0 4.58-1.717 4.58-4.787 0-2.898-1.556-4.368-4.58-4.368h-3.57v9.16-.005zm23.265-12.725V30.01h-4.62V1.996h4.62zm13.443 0l5.585 20.202 5.755-20.202h6.593V30.01h-4.367V6.112l-6.636 23.898h-3.402l-6.512-23.94v23.94h-3.864V1.996h6.848zm40.566 0v3.696h-11.426v8.064h8.947v3.696h-8.946v8.778h11.592v3.78h-16.213V1.996h16.046z"/></svg>
