<svg xmlns="http://www.w3.org/2000/svg" width="982" height="124" viewBox="0 0 982 124"><title>Alaris Prime</title><path d="M57.092 6.177l29.823 111.749H68.152L61.1 89.96H28.445l-6.85 27.98H4L36.35 6.193h20.78l-.038-.015zM44.856 24.274L32.133 75.372h25.298L44.856 24.274zm76.727-18.097v96.175h39.543v15.577h-57.975V6.177h18.432zm104.034 0l29.823 111.749h-18.763l-7.033-27.981H196.97l-6.85 27.98h-17.591l32.35-111.748h20.78-.042zm-12.236 18.097l-12.727 51.098h25.298l-12.57-51.098zm91.81-18.097c11.73 0 19.265 2.01 24.967 6.367a31.726 31.726 0 0 1 10.717 25.47 30.166 30.166 0 0 1-17.089 29.305l21.108 50.595h-19.943l-17.412-46.74h-17.43v46.736H271.68V6.18h33.492l.019-.003zM290.108 56.94h14.246c11.73 0 18.268-6.85 18.268-19.098 0-11.558-6.204-17.423-18.268-17.423h-14.246v36.536-.015zm92.81-50.763v111.749h-18.427V6.177h18.428zm77.23 30.5c-4.187-12.559-9.553-17.256-19.6-17.256a14.082 14.082 0 0 0-15.25 14.082 13.108 13.108 0 0 0 4.528 9.896c3.35 2.846 6.539 4.354 17.762 8.715a63.966 63.966 0 0 1 21.275 11.228 29.8 29.8 0 0 1 9.896 22.782c0 19.942-15.243 33.845-37.355 33.845a39.125 39.125 0 0 1-28.316-10.55 37.553 37.553 0 0 1-10.39-20.608l16.419-4.693c3.014 13.907 10.39 20.609 22.618 20.609 10.885 0 18.093-6.367 18.093-16.084 0-8.373-4.692-12.902-18.934-18.268-15.414-5.869-18.268-7.209-23.627-11.901a29.888 29.888 0 0 1-10.055-22.786c0-18.6 14.082-31.498 34.348-31.498a34.036 34.036 0 0 1 24.293 8.716c4.856 4.521 7.2 9.043 10.047 18.268l-15.752 5.503zm78.23-8.719c-.025 12.759-10.362 23.096-23.12 23.12-12.997-.056-23.492-10.626-23.456-23.622A23.243 23.243 0 0 1 514.922 4a23.532 23.532 0 0 1 23.456 23.958zm-34.512-.502c.064 6.265 5.126 11.329 11.391 11.395 6.143-.074 11.078-5.085 11.056-11.228.079-6.287-4.94-11.454-11.227-11.558a11.265 11.265 0 0 0-11.22 11.39zm87.11-21.279c14.405 0 21.948 1.522 28.163 5.861a33.834 33.834 0 0 1 12.902 28.164c0 12.902-5.024 23.46-13.907 28.818-6.546 4.019-12.738 5.195-26.812 5.195h-9.553v43.73h-18.42V6.169h27.642l-.015.008zm-9.21 53.282h9.21c8.715 0 13.404-1.172 16.418-4.186 3.65-4.278 5.51-9.8 5.191-15.414a20.677 20.677 0 0 0-6.53-16.418c-3.182-2.512-5.71-3.015-15.08-3.015h-9.21v39.037-.004zm102.69-53.282c11.73 0 19.265 2.01 24.967 6.367a31.726 31.726 0 0 1 10.717 25.47 30.166 30.166 0 0 1-17.089 29.305l21.116 50.595h-19.943L686.793 71.19h-17.431v46.744h-18.42V6.177h33.514zm-15.08 50.763h14.243c11.73 0 18.268-6.85 18.268-19.098 0-11.558-6.204-17.423-18.268-17.423h-14.242v36.536-.015zm92.808-50.763v111.749h-18.428V6.177h18.428zm53.62 0l22.28 80.586 22.958-80.586h26.299v111.749h-17.42v-95.33l-26.47 95.33h-13.572l-25.975-95.498v95.498H788.49V6.177h27.315zm161.82 0v14.744h-45.576v32.167h35.688v14.744h-35.684v35.015h46.238v15.079h-64.674V6.177h64.008z"/></svg>
