<svg xmlns="http://www.w3.org/2000/svg" width="715" height="780" viewBox="0 0 715 780">
  <g fill="#000000" fill-rule="evenodd" transform="translate(10 24)">
    <g transform="translate(8.592)">
      <path fill-rule="nonzero" d="M256.666237,567.669129 L567.518253,256.73491 L338.469399,27.6254858 L27.6173839,338.559704 L256.666237,567.669129 Z M338.469399,13.5983782 L581.541652,256.73491 L256.666237,581.696236 L13.5939847,338.559704 L338.469399,13.5983782 Z"/>
      <path fill-rule="nonzero" d="M109.420546,256.73491 L420.272561,567.669129 L649.321415,338.559704 L338.469399,27.6254858 L109.420546,256.73491 Z M338.469399,13.5983782 L663.344814,338.559704 L420.272561,581.696236 L95.3971467,256.73491 L338.469399,13.5983782 Z"/>
      <path d="M34.6290835,352.586812 C26.884174,360.33377 14.3271947,360.33377 6.58228515,352.586812 C-1.16262436,344.839854 -1.16262436,332.279555 6.58228515,324.532597 C14.3271947,316.785639 26.884174,316.785639 34.6290835,324.532597 C42.373993,332.279555 42.373993,344.839854 34.6290835,352.586812 Z M151.490743,469.479376 C143.745834,477.226333 131.188855,477.226333 123.443945,469.479376 C115.699036,461.732418 115.699036,449.172118 123.443945,441.42516 C131.188855,433.678203 143.745834,433.678203 151.490743,441.42516 C159.235653,449.172118 159.235653,461.732418 151.490743,469.479376 Z M434.29596,588.70979 C426.551051,596.456748 413.994071,596.456748 406.249162,588.70979 C398.504252,580.962833 398.504252,568.402533 406.249162,560.655575 C413.994071,552.908617 426.551051,552.908617 434.29596,560.655575 C442.04087,568.402533 442.04087,580.962833 434.29596,588.70979 Z M273.02687,427.398053 C265.28196,435.14501 252.724981,435.14501 244.980071,427.398053 C237.235162,419.651095 237.235162,407.090795 244.980071,399.343837 C252.724981,391.59688 265.28196,391.59688 273.02687,399.343837 C280.771779,407.090795 280.771779,419.651095 273.02687,427.398053 Z M270.689636,588.70979 C262.944727,596.456748 250.387748,596.456748 242.642838,588.70979 C234.897929,580.962833 234.897929,568.402533 242.642838,560.655575 C250.387748,552.908617 262.944727,552.908617 270.689636,560.655575 C278.434546,568.402533 278.434546,580.962833 270.689636,588.70979 Z M193.560941,193.612926 C185.816031,201.359883 173.259052,201.359883 165.514143,193.612926 C157.769233,185.865968 157.769233,173.305668 165.514143,165.558711 C173.259052,157.811753 185.816031,157.811753 193.560941,165.558711 C201.30585,173.305668 201.30585,185.865968 193.560941,193.612926 Z M429.621494,429.735904 C421.876584,437.482862 409.319605,437.482862 401.574696,429.735904 C393.829786,421.988946 393.829786,409.428646 401.574696,401.681689 C409.319605,393.934731 421.876584,393.934731 429.621494,401.681689 C437.366403,409.428646 437.366403,421.988946 429.621494,429.735904 Z M551.15762,471.817227 C543.412711,479.564184 530.855731,479.564184 523.110822,471.817227 C515.365912,464.070269 515.365912,451.509969 523.110822,443.763012 C530.855731,436.016054 543.412711,436.016054 551.15762,443.763012 C558.90253,451.509969 558.90253,464.070269 551.15762,471.817227 Z M233.293905,153.869454 C225.548996,161.616412 212.992016,161.616412 205.247107,153.869454 C197.502197,146.122497 197.502197,133.562197 205.247107,125.815239 C212.992016,118.068281 225.548996,118.068281 233.293905,125.815239 C241.038815,133.562197 241.038815,146.122497 233.293905,153.869454 Z M352.492798,34.6390396 C344.747889,42.3859972 332.19091,42.3859972 324.446,34.6390396 C316.701091,26.892082 316.701091,14.331782 324.446,6.58482438 C332.19091,-1.16213324 344.747889,-1.16213324 352.492798,6.58482438 C360.237708,14.331782 360.237708,26.892082 352.492798,34.6390396 Z M469.354458,151.531603 C461.609549,159.278561 449.052569,159.278561 441.30766,151.531603 C433.56275,143.784645 433.56275,131.224345 441.30766,123.477388 C449.052569,115.73043 461.609549,115.73043 469.354458,123.477388 C477.099368,131.224345 477.099368,143.784645 469.354458,151.531603 Z M509.087423,191.275075 C501.342513,199.022032 488.785534,199.022032 481.040624,191.275075 C473.295715,183.528117 473.295715,170.967817 481.040624,163.220859 C488.785534,155.473902 501.342513,155.473902 509.087423,163.220859 C516.832332,170.967817 516.832332,183.528117 509.087423,191.275075 Z M588.553351,270.762018 C580.808442,278.508975 568.251463,278.508975 560.506553,270.762018 C552.761644,263.01506 552.761644,250.45476 560.506553,242.707802 C568.251463,234.960845 580.808442,234.960845 588.553351,242.707802 C596.298261,250.45476 596.298261,263.01506 588.553351,270.762018 Z M670.356513,352.586812 C662.611604,360.33377 650.054624,360.33377 642.309715,352.586812 C634.564805,344.839854 634.564805,332.279555 642.309715,324.532597 C650.054624,316.785639 662.611604,316.785639 670.356513,324.532597 C678.101423,332.279555 678.101423,344.839854 670.356513,352.586812 Z"/>
    </g>
    <path d="M421.418507,729.599684 L441.131595,729.599684 L441.131595,690.996248 L485.971931,690.996248 L485.971931,674.055171 L441.131595,674.055171 L441.131595,653.920286 L486.943703,653.920286 L486.943703,636.979209 L421.418507,636.979209 L421.418507,729.599684 Z M510.669483,653.920286 C516.500115,653.920286 521.220151,649.199002 521.220151,643.366828 C521.220151,637.534654 516.500115,632.813371 510.669483,632.813371 C504.977676,632.813371 500.118816,637.534654 500.118816,643.366828 C500.118816,649.199002 504.977676,653.920286 510.669483,653.920286 Z M501.923535,729.599684 L519.554256,729.599684 L519.554256,662.529685 L501.923535,662.529685 L501.923535,729.599684 Z M538.698825,729.599684 L556.329545,729.599684 L556.329545,685.302935 C559.244861,680.998235 567.019037,677.665565 572.849669,677.665565 C574.793213,677.665565 576.459108,677.943287 577.708529,678.22101 L577.708529,661.002211 C569.379055,661.002211 561.049581,665.723494 556.329545,671.694529 L556.329545,662.529685 L538.698825,662.529685 L538.698825,729.599684 Z M584.497711,720.851423 C591.577764,727.377903 602.822554,731.266019 614.483818,731.266019 C633.086311,731.266019 643.498153,721.962313 643.498153,709.74252 C643.498153,693.079167 628.088626,690.024219 616.566187,687.802438 C609.06966,686.274964 603.794326,684.74749 603.794326,680.581651 C603.794326,676.693536 607.959064,674.332894 614.344994,674.332894 C622.535643,674.332894 630.170995,677.804426 634.196907,682.109126 L641.27696,670.028194 C634.613381,664.751465 625.589784,660.86335 614.206169,660.86335 C596.575449,660.86335 586.718904,670.722501 586.718904,681.970264 C586.718904,697.939312 601.573133,700.716537 613.095573,702.938318 C620.730924,704.465792 626.561556,706.132127 626.561556,710.853411 C626.561556,715.019249 622.952117,717.657613 615.316766,717.657613 C606.987292,717.657613 596.991923,713.075191 592.133063,708.492769 L584.497711,720.851423 Z M680.689916,731.266019 C668.33453,731.266019 661.67095,724.8784 661.67095,712.93633 L661.67095,677.943287 L650.564985,677.943287 L650.564985,662.529685 L661.67095,662.529685 L661.67095,644.199996 L679.440495,644.199996 L679.440495,662.529685 L693.045303,662.529685 L693.045303,677.943287 L679.440495,677.943287 L679.440495,708.215046 C679.440495,712.380885 681.661688,715.574694 685.548776,715.574694 C688.186443,715.574694 690.685285,714.602665 691.657057,713.630636 L695.405321,726.961319 C692.767654,729.321961 688.047619,731.266019 680.689916,731.266019 Z M79.1300045,729.599684 L79.1300045,652.531673 L47.6168272,729.599684 L42.8967919,729.599684 L11.5224392,652.531673 L11.5224392,729.599684 L0,729.599684 L0,636.979209 L16.5201237,636.979209 L45.2568096,707.52074 L74.13232,636.979209 L90.6524437,636.979209 L90.6524437,729.599684 L79.1300045,729.599684 Z M142.83726,731.266019 C122.430049,731.266019 109.658188,715.435833 109.658188,695.995254 C109.658188,676.554674 122.430049,660.86335 142.83726,660.86335 C163.244472,660.86335 176.016332,676.554674 176.016332,695.995254 C176.016332,715.435833 163.244472,731.266019 142.83726,731.266019 Z M142.83726,721.962313 C157.136191,721.962313 165.049191,709.74252 165.049191,695.995254 C165.049191,682.386848 157.136191,670.167055 142.83726,670.167055 C128.53833,670.167055 120.486505,682.386848 120.486505,695.995254 C120.486505,709.74252 128.53833,721.962313 142.83726,721.962313 Z M194.605603,729.599684 L194.605603,636.979209 L205.017446,636.979209 L205.017446,672.666558 C210.431604,665.306911 218.483429,660.86335 227.645851,660.86335 C245.137747,660.86335 257.493133,674.749478 257.493133,696.134115 C257.493133,717.935336 245.137747,731.266019 227.645851,731.266019 C218.20578,731.266019 210.01513,726.405874 205.017446,719.601671 L205.017446,729.599684 L194.605603,729.599684 Z M205.017446,711.408856 C208.626885,717.24103 216.817534,721.962313 225.008184,721.962313 C238.612992,721.962313 246.664817,710.992272 246.664817,696.134115 C246.664817,681.275958 238.612992,670.167055 225.008184,670.167055 C216.817534,670.167055 208.626885,675.166062 205.017446,680.998235 L205.017446,711.408856 Z M281.218913,651.698505 C277.47065,651.698505 274.277685,648.643557 274.277685,644.755441 C274.277685,640.867325 277.47065,637.673516 281.218913,637.673516 C285.106001,637.673516 288.298966,640.867325 288.298966,644.755441 C288.298966,648.643557 285.106001,651.698505 281.218913,651.698505 Z M276.082404,729.599684 L276.082404,662.529685 L286.494247,662.529685 L286.494247,729.599684 L276.082404,729.599684 Z M308.970606,729.599684 L308.970606,636.979209 L319.382448,636.979209 L319.382448,729.599684 L308.970606,729.599684 Z M337.971719,695.995254 C337.971719,676.554674 351.854176,660.86335 371.011967,660.86335 C391.280354,660.86335 403.219267,676.693536 403.219267,696.828421 L403.219267,699.466786 L348.93886,699.466786 C349.771808,712.103162 358.65658,722.65662 373.094335,722.65662 C380.729686,722.65662 388.503862,719.601671 393.779196,714.186081 L398.77688,720.990284 C392.113301,727.655626 383.089704,731.266019 372.122563,731.266019 C352.27065,731.266019 337.971719,716.963307 337.971719,695.995254 Z M370.873142,669.472749 C356.574211,669.472749 349.494158,681.55368 348.93886,691.829415 L392.946249,691.829415 C392.807424,681.831403 386.143845,669.472749 370.873142,669.472749 Z"/>
  </g>
</svg>
